PathFileType	4	(X/Y/Z)	Patient4_TMGait_0pt6_01_left_10.trc.trc
DataRate	CameraRate	NumFrames	NumMarkers	Units	OrigDataRate	OrigDataStartFrame	OrigNumFrames
82.840236686391	82.840236686391	4	33	mm	82.840236686391	89	       141
Frame#	Time	Sacral			L.Shoulder			Chest			R.Shoulder			Neck			R.ASIS			L.ASIS			R.Thigh.Superior			R.Thigh.Lateral			R.Thigh.Inferior			R.Patella			L.Thigh.Superior			L.Thigh.Lateral			L.Thigh.Inferior			L.Patella			L.Shank.Superior			L.Shank.Lateral			L.Shank.Inferior			R.Shank.Superior			R.Shank.Lateral			R.Shank.Inferior			R.Heel			R.Midfoot.Superior			R.Midfoot.Lateral			R.Toe			L.Heel			L.Midfoot.Lateral			L.Midfoot.Superior			L.Toe			L.Elbow			L.Wrist			R.Elbow			R.Wrist			
		X1	Y1	Z1	X2	Y2	Z2	X3	Y3	Z3	X4	Y4	Z4	X5	Y5	Z5	X6	Y6	Z6	X7	Y7	Z7	X8	Y8	Z8	X9	Y9	Z9	X10	Y10	Z10	X11	Y11	Z11	X12	Y12	Z12	X13	Y13	Z13	X14	Y14	Z14	X15	Y15	Z15	X16	Y16	Z16	X17	Y17	Z17	X18	Y18	Z18	X19	Y19	Z19	X20	Y20	Z20	X21	Y21	Z21	X22	Y22	Z22	X23	Y23	Z23	X24	Y24	Z24	X25	Y25	Z25	X26	Y26	Z26	X27	Y27	Z27	X28	Y28	Z28	X29	Y29	Z29	X30	Y30	Z30	X31	Y31	Z31	X32	Y32	Z32	X33	Y33	Z33	

89	13.202285714286	660.466692700643	997.189138283412	481.112949920676	818.021836085275	1429.305848101374	295.534953829647	916.872756042120	1368.664236558377	461.930870603360	822.060591694614	1438.976635649251	629.711378377628	789.354032009959	1491.757969117611	445.955816341567	886.086747953488	942.472771359518	603.923998169095	876.931293244551	959.312554193137	329.493892980825	947.540472549415	748.838442861052	577.327983141954	874.198702847462	633.837734083072	633.318356945294	959.421583105187	589.446785127133	556.265182904260	967.561440301220	501.230354625867	561.918843448022	914.617866845123	739.418723015225	356.538295694673	823.844862294870	625.447515623038	293.326475767448	906.666518945580	539.900099830204	353.175543352054	897.190970823051	454.774428507067	351.497001959209	830.243544497568	396.935861151315	348.384197158375	691.694169676213	345.994528105928	302.149851875310	685.360910800701	219.692461419162	364.332122047044	946.937655050988	410.458533039048	568.492920587688	881.416022935012	301.351704020371	626.588528529814	934.241709134986	210.520109043478	566.299395169668	812.187917719519	41.003242113044	532.500164227652	981.802527276775	98.844688300867	569.517747860698	895.339294540169	36.087125321030	607.709564837851	1102.275068193486	51.232823263131	596.878306626300	498.997943535230	137.668042010085	408.130614217413	560.278840518465	98.244021065759	328.054460129687	662.997645282246	122.223402171378	346.741334606549	754.308275623914	32.515920375293	320.661891865096	882.791870629975	1086.853399868130	169.929178694715	1131.355176350140	1014.325563970279	178.204654188747	743.139976294208	1100.506292336020	747.518511105930	770.194174304586	841.379469256021	760.621366907388	
90	13.214357142857	659.868979239386	998.001462030413	484.116757707670	816.236603737825	1430.511196060846	298.453239211309	916.830090095776	1369.175986800634	463.589873065373	823.925156136315	1439.073290505875	632.531903650047	789.159946070083	1492.465074496123	449.175513828639	886.273944470968	943.249420960544	605.097193292288	875.525915372987	960.008676468738	330.488399514707	945.288506633069	748.218110642380	579.160975769139	870.503889512120	633.990280268900	634.787010642961	955.078619374403	588.794856764583	557.511661522720	962.146484068193	500.729130436378	562.768590810924	919.086680249980	742.589268208892	358.356929459996	833.462913643646	625.943193186596	294.390318254231	919.200186578268	542.570852494052	354.431519260181	911.155991811721	456.121338990320	352.254780395165	842.242377885783	398.317014991122	349.230103273820	701.966448198740	352.372706623372	302.705578434552	690.933519110660	226.434788083716	364.709420240485	941.232508317950	410.100467001052	569.381074586298	875.332221218012	301.158857419020	627.330337840769	927.631637396085	210.235558135335	566.722799518093	805.013173798265	40.957270631175	532.646764247286	974.680305917783	98.711314062435	569.641299495357	888.150715197163	36.038516555423	607.879776311685	1095.122185487247	51.057243831322	596.981720987071	501.299462831949	153.079774405142	407.850436549725	560.878491698945	110.333942821365	327.976553400170	664.857709336021	128.950292229846	346.923363762935	751.169767670741	32.942788351879	321.224840471150	876.890311900805	1086.440224779810	174.117860762050	1122.508519117339	1003.080266661021	181.464943032902	754.395128666834	1097.910477739235	751.230365434186	792.536098811246	840.072280538157	763.064933734046	
91	13.226428571429	659.077504719542	998.680101319227	486.944027217560	814.201033428358	1431.562576384107	301.249671688748	916.648994246339	1369.515533927547	465.036854967339	825.778506417037	1438.940125652802	635.239867639323	788.939396787872	1493.024797073599	452.313727809240	886.311625981807	943.877939775830	606.121266604165	874.126990199762	960.603799848040	331.320524969448	942.873722901009	747.555580550415	580.701383239600	866.899544981742	634.078436726494	636.177400944249	950.710775020006	588.117328978526	558.557293209575	956.758538967845	500.203025008080	563.515961210651	923.366308988873	746.034253722739	360.085223480872	843.008756242895	626.922572674625	295.268518423847	931.443399932060	545.856307946650	355.644012914013	925.007947913259	458.186064916649	353.041658770952	854.450276680883	400.257101627656	350.007670892845	712.727507180299	358.840192567726	303.233704109170	697.463449315130	233.353226007327	365.113667954010	935.551899733535	409.699979362833	570.147942773743	869.309642325733	300.927106641289	627.986461993216	921.038001426574	209.912466688447	567.045513398658	797.808502436901	40.923219591274	532.768837620410	967.549088852850	98.535153633696	569.728966374478	880.936034759735	35.983479008623	608.015853468899	1087.955169366851	50.779406429348	597.066991640510	505.106618746043	167.829529805645	407.624008565212	563.139865614303	122.254343907138	327.944025646200	668.065933086122	136.024472154966	347.243833153077	749.827442786953	34.085054862952	321.856368668720	870.772526343905	1085.862736935686	178.217936487957	1112.746192510596	991.236681476244	184.686202029966	765.939637452344	1095.425100091088	754.847909564293	815.400428556996	839.377024903277	765.396176348318	
92	13.238500000000	658.117997857132	999.249664790342	489.581353979729	811.974613868039	1432.483133252645	303.895376015839	916.329519025525	1369.723975941293	466.278811464879	827.565923945026	1438.626153830770	637.806582814669	788.707557908935	1493.468937968701	455.345663721058	886.217196278574	944.384526246036	607.039921690215	872.734839418386	961.119967255877	332.058650911047	940.375876644542	746.901598026741	581.936637979250	863.448490630441	634.126672288757	637.486108202619	946.386624234754	587.437445786733	559.415218379399	951.458869241141	499.669475354638	564.163519379612	927.361142543031	749.744683387801	361.753106309733	852.295356564461	628.436093798238	295.985725048944	943.190266036862	549.760096667511	356.797801403973	938.557432194723	460.991352721319	353.794143973186	866.710401735942	402.760837216744	350.686872090754	723.819947101279	365.210784485253	303.728695360783	704.978737851113	240.182345213464	365.521005881270	929.951513122280	409.272272317262	570.795388153893	863.389334478551	300.681761668788	628.564015977264	914.488631489482	209.565363452864	567.278492397995	790.577715705063	40.909677229515	532.878992487229	960.413275533056	98.333244396754	569.793117415831	873.698957396474	35.931680680336	608.130004550523	1080.777302973904	50.420604245074	597.142320011382	510.476427034451	181.285388228765	407.475283758194	567.197343620616	133.447060038568	327.965651540244	672.776443402224	143.113736090532	347.650227518929	750.652321686001	35.958896264354	322.491636437283	864.452913086079	1085.135906992403	182.237908351958	1101.998033222753	978.878818302747	187.836217627516	777.777666439675	1093.099490988277	758.300049136139	838.670894699803	839.368677290052	767.557033996458	
